<?xml version="1.0" encoding="UTF-8"?>
<svg version="1.1" xmlns="http://www.w3.org/2000/svg" width="512" height="512">
<path d="M0 0 C0.93875977 -0.00095673 1.87751953 -0.00191345 2.84472656 -0.00289917 C4.81445381 -0.00357469 6.78418337 -0.00176464 8.75390625 0.00244141 C11.74223912 0.00779859 14.73042172 0.00247487 17.71875 -0.00390625 C19.64583366 -0.00324536 21.57291723 -0.00196396 23.5 0 C24.37946289 -0.00202423 25.25892578 -0.00404846 26.16503906 -0.00613403 C30.52080524 0.01005937 34.85805853 0.13986629 39.203125 0.45361328 C40.40437012 0.53882736 40.40437012 0.53882736 41.62988281 0.62576294 C44.15954115 1.23075881 45.02003075 2.25555842 46.75 4.1328125 C48.60266073 3.83796096 48.60266073 3.83796096 50.75 3.1328125 C55.73735182 2.93674953 60.24365164 3.43053326 65.125 4.4453125 C66.34960938 4.68894531 67.57421875 4.93257813 68.8359375 5.18359375 C69.79757812 5.49683594 70.75921875 5.81007813 71.75 6.1328125 C72.08 7.1228125 72.41 8.1128125 72.75 9.1328125 C73.64847656 8.89046875 74.54695313 8.648125 75.47265625 8.3984375 C81.34677868 7.5805031 86.71587243 9.97845631 92.1875 11.8828125 C93.37601562 12.28967285 94.56453125 12.6965332 95.7890625 13.11572266 C125.86516314 23.67511878 153.59680129 39.29249272 177.75 60.1328125 C178.50667969 60.77863281 179.26335937 61.42445312 180.04296875 62.08984375 C197.13626659 77.06437435 211.6192804 93.64110792 224.75 112.1328125 C225.51054687 113.20273438 226.27109375 114.27265625 227.0546875 115.375 C229.02776775 118.5846651 229.18060601 120.4296008 228.75 124.1328125 C228.42 124.4628125 228.09 124.7928125 227.75 125.1328125 C228.61625 125.4421875 229.4825 125.7515625 230.375 126.0703125 C235.32081345 129.09275405 238.72419017 133.57264897 240.34765625 139.20703125 C240.69165773 141.5181398 240.75 143.79861485 240.75 146.1328125 C241.49636719 146.66777344 242.24273437 147.20273438 243.01171875 147.75390625 C246.56360526 150.83963933 247.83497057 153.8888961 249.5625 158.1953125 C249.89870361 159.02039307 250.23490723 159.84547363 250.58129883 160.69555664 C261.49752336 188.34982315 267.83814527 217.94308767 268.10009766 247.69238281 C268.11674445 249.07308708 268.14414842 250.4537022 268.18212891 251.83398438 C268.40412572 259.99574541 268.53073686 266.80955359 262.75 273.1328125 C261.76049171 274.14319527 260.76326767 275.14625859 259.75 276.1328125 C260.53375 276.7103125 261.3175 277.2878125 262.125 277.8828125 C265.88513514 281.10578547 265.88513514 281.10578547 266.75 284.1328125 C266.60647125 288.1516175 266.33651639 290.39493704 263.8125 293.5703125 C261.75 295.1328125 261.75 295.1328125 259.75 295.1328125 C259.75 295.7928125 259.75 296.4528125 259.75 297.1328125 C260.74 297.4628125 261.73 297.7928125 262.75 298.1328125 C265.95527301 304.54335851 261.99056632 315.03064585 260.125 321.5703125 C259.85993652 322.51551758 259.59487305 323.46072266 259.32177734 324.43457031 C247.25283046 366.64421661 226.18487669 403.45738377 195.75 435.1328125 C195.234375 435.67035156 194.71875 436.20789063 194.1875 436.76171875 C187.10726076 444.09725508 179.83655676 450.89854296 171.75 457.1328125 C171.17443359 457.58479004 170.59886719 458.03676758 170.00585938 458.50244141 C159.73489995 466.55519625 149.06703305 473.63567417 137.75 480.1328125 C137.05825684 480.53097168 136.36651367 480.92913086 135.65380859 481.33935547 C109.58925599 496.15793901 80.38344356 505.76591576 50.75 510.1328125 C49.59854492 510.30723877 48.44708984 510.48166504 47.26074219 510.66137695 C37.44681776 512.02986467 27.76296265 512.53580472 17.85693359 512.55834961 C15.35549309 512.57040652 12.85640483 512.61996164 10.35546875 512.66992188 C-2.64933724 512.80122744 -10.60451465 510.14924445 -20.25 501.1328125 C-20.3325 501.8959375 -20.415 502.6590625 -20.5 503.4453125 C-21.25 506.1328125 -21.25 506.1328125 -22.875 507.9453125 C-26.23376567 509.62469534 -28.53977771 509.58845383 -32.25 509.1328125 C-33.9574998 507.85218765 -35.63263741 506.5255414 -37.25 505.1328125 C-38.24 505.4628125 -39.23 505.7928125 -40.25 506.1328125 C-47.15374496 506.62814846 -52.91714199 505.12814849 -59.5 503.1328125 C-60.55123047 502.81884521 -61.60246094 502.50487793 -62.68554688 502.18139648 C-109.15340175 487.96691613 -109.15340175 487.96691613 -116.125 475.8828125 C-116.49625 474.9753125 -116.8675 474.0678125 -117.25 473.1328125 C-117.83136719 473.49375 -118.41273437 473.8546875 -119.01171875 474.2265625 C-121.25 475.1328125 -121.25 475.1328125 -123.14453125 474.6640625 C-129.35852375 471.32293415 -135.30210519 467.7727309 -138.25 461.1328125 C-138.97058594 461.21144531 -139.69117188 461.29007812 -140.43359375 461.37109375 C-144.14671689 461.05694602 -145.50468855 459.73850305 -148.3125 457.3203125 C-149.27800781 456.49144531 -150.24351562 455.66257812 -151.23828125 454.80859375 C-152.24363806 453.91830202 -153.24755126 453.02637738 -154.25 452.1328125 C-155.19230469 451.30136719 -156.13460937 450.46992188 -157.10546875 449.61328125 C-160.19754639 446.82999409 -163.23764795 444.0018456 -166.25 441.1328125 C-166.84893066 440.56256348 -167.44786133 439.99231445 -168.06494141 439.40478516 C-176.44560947 431.36583207 -184.08718991 423.09492952 -191.02099609 413.77636719 C-192.21033247 412.18586013 -193.42702768 410.61592528 -194.64453125 409.046875 C-202.28155172 399.13305967 -208.52723461 388.5302442 -214.625 377.6328125 C-215.05417725 376.86694824 -215.48335449 376.10108398 -215.92553711 375.31201172 C-219.24054356 369.31998368 -221.52905078 364.82962302 -221.375 357.8203125 C-221.35695312 356.75167969 -221.33890625 355.68304688 -221.3203125 354.58203125 C-221.29710937 353.77378906 -221.27390625 352.96554687 -221.25 352.1328125 C-222.02859375 352.04 -222.8071875 351.9471875 -223.609375 351.8515625 C-226.25 351.1328125 -226.25 351.1328125 -227.578125 349.6015625 C-229.94403244 344.54894661 -231.3083584 339.75856194 -231.25 334.1328125 C-230.92 333.4728125 -230.59 332.8128125 -230.25 332.1328125 C-231.16265625 331.87177734 -231.16265625 331.87177734 -232.09375 331.60546875 C-235.36862615 329.36882326 -235.81796127 326.23773407 -236.75 322.5703125 C-236.9572168 321.79179932 -237.16443359 321.01328613 -237.37792969 320.21118164 C-240.12874086 309.35853649 -241.78137105 298.22346242 -243.25 287.1328125 C-243.33816986 286.47209244 -243.42633972 285.81137238 -243.5171814 285.13063049 C-244.22550639 279.39716951 -244.39602279 273.75359402 -244.3828125 267.98046875 C-244.38376923 267.04029404 -244.38472595 266.10011932 -244.38571167 265.13145447 C-244.38638798 263.15575086 -244.3845723 261.18004496 -244.38037109 259.2043457 C-244.37502112 256.20714239 -244.3803318 253.21008931 -244.38671875 250.21289062 C-244.38605775 248.28124967 -244.38477615 246.34960882 -244.3828125 244.41796875 C-244.38483673 243.5353688 -244.38686096 242.65276886 -244.38894653 241.74342346 C-244.3317366 226.29628571 -244.3317366 226.29628571 -242.25 222.1328125 C-241.59 222.1328125 -240.93 222.1328125 -240.25 222.1328125 C-240.58 221.1428125 -240.91 220.1528125 -241.25 219.1328125 C-241.5010002 214.02914167 -241.53961584 209.82107351 -239.25 205.1328125 C-236.625 203.2578125 -236.625 203.2578125 -234.25 202.1328125 C-234.91 201.4728125 -235.57 200.8128125 -236.25 200.1328125 C-238.46229602 192.16854682 -235.52935956 185.43175072 -232.875 177.8828125 C-232.41129286 176.53266234 -231.94767063 175.18248302 -231.48413086 173.83227539 C-227.7072887 162.95643003 -223.38250127 152.43930656 -218.25 142.1328125 C-217.59016113 140.79669922 -217.59016113 140.79669922 -216.91699219 139.43359375 C-202.97686952 111.41658478 -202.97686952 111.41658478 -197.02734375 109.3671875 C-196.14755859 109.25117188 -196.14755859 109.25117188 -195.25 109.1328125 C-195.20875 108.3078125 -195.1675 107.4828125 -195.125 106.6328125 C-193.94407251 101.90910255 -191.62707807 98.61542426 -188.25 95.1328125 C-187.3425 94.7821875 -186.435 94.4315625 -185.5 94.0703125 C-184.7575 93.7609375 -184.015 93.4515625 -183.25 93.1328125 C-182.97341553 92.06981934 -182.69683105 91.00682617 -182.41186523 89.91162109 C-181.09542452 85.63007679 -179.57617226 83.8521541 -176.41015625 80.734375 C-175.92856552 80.25511566 -175.44697479 79.77585632 -174.95079041 79.28207397 C-173.93194817 78.27292738 -172.90712153 77.26979054 -171.87670898 76.27246094 C-170.33601341 74.7805809 -168.81422782 73.27143742 -167.29492188 71.7578125 C-160.93244024 65.46833523 -154.29761137 59.65550211 -147.25 54.1328125 C-146.59765381 53.62089355 -145.94530762 53.10897461 -145.27319336 52.58154297 C-135.42031399 44.97866388 -125.01461297 38.36146804 -114.25 32.1328125 C-113.57275879 31.73852051 -112.89551758 31.34422852 -112.19775391 30.93798828 C-78.94386222 11.81108713 -38.45887404 -0.08851953 0 0 Z " fill="#604740" transform="translate(244.25,-0.1328125)"/>
<path d="M0 0 C3.05630827 4.5844624 1.8023679 8.71386221 1 14 C0.27738968 17.52746212 -0.63745484 20.97570071 -1.625 24.4375 C-1.89006348 25.38270508 -2.15512695 26.32791016 -2.42822266 27.30175781 C-14.49716954 69.51140411 -35.56512331 106.32457127 -66 138 C-66.515625 138.53753906 -67.03125 139.07507813 -67.5625 139.62890625 C-74.64273924 146.96444258 -81.91344324 153.76573046 -90 160 C-90.57556641 160.45197754 -91.15113281 160.90395508 -91.74414062 161.36962891 C-102.01510005 169.42238375 -112.68296695 176.50286167 -124 183 C-125.03761475 183.59723877 -125.03761475 183.59723877 -126.09619141 184.20654297 C-152.16074401 199.02512651 -181.36655644 208.63310326 -211 213 C-212.15145508 213.17442627 -213.30291016 213.34885254 -214.48925781 213.52856445 C-224.30318224 214.89705217 -233.98703735 215.40299222 -243.89306641 215.42553711 C-246.39450691 215.43759402 -248.89359517 215.48714914 -251.39453125 215.53710938 C-262.03223544 215.64630252 -269.25818854 214.5806362 -277.80078125 207.765625 C-280.79439321 204.00101173 -282.99254692 200.01995684 -285.1875 195.75 C-285.6609082 194.83323486 -286.13431641 193.91646973 -286.62207031 192.97192383 C-309.08312193 148.50935308 -325.1689573 84.53869567 -309 35 C-307.67578125 33.22314453 -307.67578125 33.22314453 -306 32 C-298.92828191 31.4170517 -292.57077093 32.73082343 -285.6875 34.25 C-260.94524142 39.40157626 -236.22535304 42.11153181 -211 43 C-210.00286987 43.03607361 -210.00286987 43.03607361 -208.9855957 43.07287598 C-165.33878683 44.58209803 -121.01334172 38.92893333 -79 27 C-77.71971924 26.63841797 -77.71971924 26.63841797 -76.41357422 26.26953125 C-73.73031156 25.50441058 -71.05165972 24.72539474 -68.375 23.9375 C-67.58085693 23.70409912 -66.78671387 23.47069824 -65.96850586 23.23022461 C-61.09720446 21.75442994 -56.3976456 20.01317424 -51.6875 18.08666992 C-48.76145382 16.90354569 -45.8164608 15.78158641 -42.86328125 14.66796875 C-26.72227532 8.56895896 -26.72227532 8.56895896 -11.1484375 1.1796875 C-7.06325949 -0.35098714 -4.34395523 -0.42802075 0 0 Z " fill="#FD6605" transform="translate(506,297)"/>
<path d="M0 0 C1.19254395 0.17619873 1.19254395 0.17619873 2.40917969 0.35595703 C12.949138 1.98021709 12.949138 1.98021709 16.11328125 5.05078125 C18.52279122 8.81719953 20.18664685 12.65658902 21.8125 16.8125 C22.15579346 17.68777344 22.49908691 18.56304687 22.8527832 19.46484375 C33.12591003 46.3115704 39.09675339 74.78787854 39.35009766 103.55957031 C39.36674445 104.94027458 39.39414842 106.3208897 39.43212891 107.70117188 C39.65412572 115.86293291 39.78073686 122.67674109 34 129 C33.53110352 129.52142578 33.06220703 130.04285156 32.57910156 130.58007812 C30.82282362 132.1593163 29.22819108 132.9923715 27.0703125 133.9453125 C26.28712646 134.29505127 25.50394043 134.64479004 24.69702148 135.00512695 C23.84825439 135.37468506 22.9994873 135.74424316 22.125 136.125 C21.22789307 136.51969482 20.33078613 136.91438965 19.40649414 137.32104492 C17.52407954 138.14748285 15.64034681 138.97092428 13.75537109 139.79150391 C11.23901656 140.89516817 8.73741948 142.02599924 6.23828125 143.16796875 C-4.87282943 148.17357099 -16.2305434 152.30227554 -27.75 156.25 C-28.47913605 156.50053131 -29.20827209 156.75106262 -29.95950317 157.00918579 C-45.41068348 162.29836163 -60.79331987 167.07641386 -76.875 170.0625 C-78.20605972 170.31467069 -79.5371143 170.56686853 -80.86816406 170.8190918 C-106.23176763 175.57191429 -131.21849914 178.26191178 -157 179 C-157.8573877 179.02481445 -158.71477539 179.04962891 -159.59814453 179.07519531 C-191.0742611 179.84914442 -222.73245278 176.62180203 -253.5625 170.4375 C-254.5623291 170.23987061 -255.5621582 170.04224121 -256.59228516 169.83862305 C-257.51187012 169.64308838 -258.43145508 169.44755371 -259.37890625 169.24609375 C-260.1788501 169.07779053 -260.97879395 168.9094873 -261.80297852 168.73608398 C-264.36839426 167.87657421 -266.02037202 166.84152086 -268 165 C-268.84633872 159.09770736 -267.03379851 154.47317013 -264.8125 149.125 C-264.46155273 148.2685791 -264.11060547 147.4121582 -263.74902344 146.52978516 C-251.08249992 116.46424989 -233.41733092 90.54702319 -211 67 C-210.31550781 66.27425781 -209.63101563 65.54851562 -208.92578125 64.80078125 C-203.67302865 59.37755392 -197.9002053 54.69732474 -192 50 C-190.93785535 49.12484567 -189.87668365 48.24850939 -188.81640625 47.37109375 C-159.67069641 23.50865877 -124.61332468 8.71355452 -88 1 C-87.14083984 0.814375 -86.28167969 0.62875 -85.39648438 0.4375 C-57.55065547 -5.40428229 -27.95947851 -4.27088831 0 0 Z " fill="#FE760E" transform="translate(473,144)"/>
<path d="M0 0 C36.47273618 2.44840127 76.02967399 28.72895316 103 52 C103.75667969 52.64582031 104.51335937 53.29164062 105.29296875 53.95703125 C122.38626659 68.93156185 136.8692804 85.50829542 150 104 C150.76054687 105.06992188 151.52109375 106.13984375 152.3046875 107.2421875 C154.27776775 110.4518526 154.43060601 112.2967883 154 116 C153 117 153 117 150.05078125 117.1328125 C148.81714844 117.13023438 147.58351563 117.12765625 146.3125 117.125 C144.48138672 117.12886719 144.48138672 117.12886719 142.61328125 117.1328125 C139 117 139 117 136.24414062 116.5065918 C129.63154943 115.47399647 122.87005936 115.70796469 116.1875 115.6875 C115.37398071 115.68488159 114.56046143 115.68226318 113.72229004 115.67956543 C91.1657037 115.67185152 67.66818288 117.39984624 46 124 C44.44708252 124.45922852 44.44708252 124.45922852 42.86279297 124.92773438 C16.11239431 132.95100017 -8.93511534 144.07137861 -32 160 C-33.05960938 160.72832031 -34.11921875 161.45664063 -35.2109375 162.20703125 C-46.1583875 169.9806407 -56.27919953 178.7552484 -66 188 C-66.56654297 188.53786133 -67.13308594 189.07572266 -67.71679688 189.62988281 C-76.31433046 197.85216493 -83.9056672 206.45834089 -91 216 C-91.69480469 216.91136719 -92.38960938 217.82273438 -93.10546875 218.76171875 C-107.43345203 237.89429523 -118.82488385 259.22988086 -127.28125 281.5546875 C-127.56484375 282.28139648 -127.8484375 283.00810547 -128.140625 283.75683594 C-128.74585688 285.3366287 -129.31569018 286.93020983 -129.859375 288.53222656 C-130.73530123 290.88442252 -131.60329393 292.91488237 -133 295 C-138.6523821 297.54692316 -143.54018806 295.08437332 -149.1015625 292.98852539 C-150.24367187 292.53856201 -151.38578125 292.08859863 -152.5625 291.625 C-153.74457031 291.17181396 -154.92664063 290.71862793 -156.14453125 290.25170898 C-159.7706693 288.85324332 -163.38605493 287.42964361 -167 286 C-168.10843262 285.56671387 -169.21686523 285.13342773 -170.35888672 284.68701172 C-173.41109826 283.49137201 -176.45706069 282.28152351 -179.5 281.0625 C-180.4185376 280.69785645 -181.3370752 280.33321289 -182.28344727 279.95751953 C-183.12834717 279.61188965 -183.97324707 279.26625977 -184.84375 278.91015625 C-185.57787109 278.61246338 -186.31199219 278.31477051 -187.06835938 278.00805664 C-189.20198436 276.89459133 -190.51814366 275.89842295 -192 274 C-192.82674166 266.09378122 -190.73632025 259.12218821 -188.5625 251.5625 C-188.38326996 250.93028534 -188.20403992 250.29807068 -188.01937866 249.646698 C-167.02709278 175.66875813 -126.12860155 102.6688828 -67.2890625 52.0078125 C-65.06487079 50.05690032 -62.8893149 48.05948231 -60.72119141 46.04663086 C-42.89525298 29.52316071 -22.9764071 15.7927489 -2.83154297 2.26831055 C-1.06877381 1.12836365 -1.06877381 1.12836365 0 0 Z " fill="#FD8717" transform="translate(319,8)"/>
<path d="M0 0 C0.93875977 -0.00095673 1.87751953 -0.00191345 2.84472656 -0.00289917 C4.81445381 -0.00357469 6.78418337 -0.00176464 8.75390625 0.00244141 C11.74223912 0.00779859 14.73042172 0.00247487 17.71875 -0.00390625 C19.64583366 -0.00324536 21.57291723 -0.00196396 23.5 0 C24.37946289 -0.00202423 25.25892578 -0.00404846 26.16503906 -0.00613403 C41.58677348 0.05119924 41.58677348 0.05119924 45.75 2.1328125 C46.10546875 4.33984375 46.10546875 4.33984375 45.75 7.1328125 C43.87265197 8.9609992 42.18847378 10.34115196 40.0625 11.8203125 C38.86301148 12.69754791 37.66380039 13.57516278 36.46484375 14.453125 C35.53841064 15.11876465 35.53841064 15.11876465 34.59326172 15.79785156 C31.72685745 17.87381164 28.9257237 20.03198033 26.125 22.1953125 C25.58464111 22.61143799 25.04428223 23.02756348 24.48754883 23.45629883 C15.57396053 30.33656293 7.0999038 37.53855515 -1.12109375 45.22265625 C-3.83435033 47.75761547 -6.59550267 50.23296859 -9.375 52.6953125 C-16.8547911 59.4088811 -24.00011472 66.47714138 -30.5234375 74.12890625 C-32.46741046 76.38514636 -34.48323518 78.56645143 -36.5 80.7578125 C-41.59577707 86.4072903 -46.25249548 92.36133211 -50.89453125 98.38330078 C-52.16797093 100.02693708 -53.45589608 101.65776921 -54.75 103.28515625 C-66.11810171 117.73211884 -75.91568967 133.31379828 -85.25 149.1328125 C-85.64864258 149.80618652 -86.04728516 150.47956055 -86.45800781 151.17333984 C-106.63782496 185.56961172 -121.91844263 222.98192285 -131.61645508 261.65429688 C-132.59420815 265.41161705 -133.63895199 268.22250397 -136.25 271.1328125 C-142.40007015 270.70505171 -146.43421891 268.67203004 -151.625 265.4453125 C-152.36943359 264.99051514 -153.11386719 264.53571777 -153.88085938 264.06713867 C-155.34795173 263.16718322 -156.81194484 262.26215161 -158.27246094 261.3515625 C-159.93425884 260.3274026 -161.62440248 259.34943806 -163.3203125 258.3828125 C-164.52300781 257.67125 -164.52300781 257.67125 -165.75 256.9453125 C-166.4203125 256.55988281 -167.090625 256.17445313 -167.78125 255.77734375 C-170.14573086 253.1298798 -170.32061723 250.54585872 -170.25 247.1328125 C-169.66077681 242.52960002 -168.77703379 237.99626489 -167.875 233.4453125 C-165.00312899 218.71513894 -164.01299287 204.48438457 -164 189.5078125 C-163.99899292 188.69733459 -163.99798584 187.88685669 -163.99694824 187.05181885 C-164.02218355 156.83402447 -168.30020431 126.05478736 -179.96484375 97.95703125 C-182.71304781 90.30834542 -182.71304781 90.30834542 -181.25 86.1328125 C-178.05280526 81.89262807 -174.28434981 78.32834999 -170.4375 74.6953125 C-169.42079909 73.70163368 -168.40580851 72.70620176 -167.39257812 71.70898438 C-151.43386582 56.13695635 -133.51194511 43.27822213 -114.25 32.1328125 C-113.57275879 31.73852051 -112.89551758 31.34422852 -112.19775391 30.93798828 C-78.94386222 11.81108713 -38.45887404 -0.08851953 0 0 Z " fill="#FD8F1C" transform="translate(244.25,-0.1328125)"/>
<path d="M0 0 C2.82641602 0.89868164 2.82641602 0.89868164 5.75390625 2.16015625 C6.84646729 2.62107666 7.93902832 3.08199707 9.06469727 3.55688477 C10.21897217 4.05373779 11.37324707 4.55059082 12.5625 5.0625 C22.17058585 9.10543871 31.77377846 12.79099428 41.72680664 15.89282227 C42.52981201 16.14604248 43.33281738 16.3992627 44.16015625 16.66015625 C45.20635132 16.97932007 45.20635132 16.97932007 46.27368164 17.30493164 C48 18 48 18 50 20 C50.08203125 22.16015625 50.08203125 22.16015625 49.8125 25.0625 C49.70679688 26.24972656 49.60109375 27.43695313 49.4921875 28.66015625 C49.15680521 31.82691032 48.72216119 34.9708179 48.2578125 38.12109375 C44.14582623 66.90253243 44.92827643 95.40996969 50 124 C50.25269192 125.51951666 50.5053081 127.03904592 50.7578125 128.55859375 C52.39826314 137.61878381 55.07544897 146.29078266 58 155 C58.22026855 155.67256836 58.44053711 156.34513672 58.66748047 157.03808594 C62.82566204 169.70287425 67.78011004 182.30968977 74.11035156 194.0612793 C75.35243993 196.76803663 75.19575876 199.06361854 75 202 C74 203 74 203 70.640625 203.25 C65.08739151 203.17102068 60.03162394 201.60091777 54.75 200 C53.69876953 199.68603271 52.64753906 199.37206543 51.56445312 199.04858398 C10.48127072 186.48127072 10.48127072 186.48127072 -1 175 C-1.49601628 172.54382299 -1.9485834 170.09336049 -2.375 167.625 C-3.21066576 162.937759 -4.1009285 158.37052767 -5.5 153.8125 C-7.82892543 145.82060853 -8.60046301 137.44345518 -9.65869141 129.20727539 C-9.95656085 127.02969774 -9.95656085 127.02969774 -10.50927734 125.06005859 C-11.11507372 122.51691938 -11.30725661 120.04881993 -11.5 117.44140625 C-11.5820166 116.3445752 -11.6640332 115.24774414 -11.74853516 114.11767578 C-11.83151855 112.94446777 -11.91450195 111.77125977 -12 110.5625 C-12.08685059 109.34546387 -12.17370117 108.12842773 -12.26318359 106.87451172 C-12.51659885 103.25015062 -12.76107904 99.62534356 -13 96 C-13.0932959 94.58678467 -13.0932959 94.58678467 -13.18847656 93.14501953 C-14.99056996 64.65144092 -14.18151288 36.54293047 -10.0859375 8.28515625 C-9.88170166 6.8621521 -9.88170166 6.8621521 -9.67333984 5.41040039 C-8.14729466 -0.05248725 -5.37217767 -0.54619 0 0 Z " fill="#FD770E" transform="translate(130,303)"/>
<path d="M0 0 C3.3771509 0.8702628 5.83604717 2.08635632 8.82641602 3.87060547 C9.86733398 4.48548828 10.90825195 5.10037109 11.98071289 5.73388672 C13.05256836 6.37970703 14.12442383 7.02552734 15.22875977 7.69091797 C16.30448242 8.32900391 17.38020508 8.96708984 18.48852539 9.62451172 C21.38672538 11.34582331 24.27797119 13.07804272 27.16625977 14.81591797 C28.08463623 15.33814941 29.0030127 15.86038086 29.94921875 16.3984375 C32.16625977 17.81591797 32.16625977 17.81591797 33.16625977 19.81591797 C33.10139712 28.31292467 31.52065162 36.89660892 30.27075195 45.28173828 C27.96486973 61.29448494 28.00897071 77.27810332 28.03588867 93.42163086 C28.04124271 97.24125141 28.03592054 101.06075414 28.02954102 104.88037109 C28.02034974 125.38727913 29.4361994 144.92251995 32.7331543 165.15234375 C33.15885099 167.7811992 33.57316312 170.41166922 33.98657227 173.04248047 C34.11983917 173.83627106 34.25310608 174.63006165 34.39041138 175.44790649 C35.0771146 179.84345745 35.1965629 183.4132354 34.16625977 187.81591797 C30.9319012 188.16886228 29.473114 188.01224651 26.69360352 186.23388672 C25.83895508 185.49783203 24.98430664 184.76177734 24.10375977 184.00341797 C23.13825195 183.17455078 22.17274414 182.34568359 21.17797852 181.49169922 C20.1726217 180.60140749 19.16870851 179.70948285 18.16625977 178.81591797 C17.22395508 177.98447266 16.28165039 177.15302734 15.31079102 176.29638672 C12.21871338 173.51309956 9.17861182 170.68495107 6.16625977 167.81591797 C5.5673291 167.24566895 4.96839844 166.67541992 4.35131836 166.08789062 C-4.0293497 158.04893754 -11.67093014 149.77803498 -18.60473633 140.45947266 C-19.79407271 138.8689656 -21.01076792 137.29903074 -22.22827148 135.72998047 C-29.86529195 125.81616514 -36.11097485 115.21334967 -42.20874023 104.31591797 C-42.63791748 103.55005371 -43.06709473 102.78418945 -43.50927734 101.99511719 C-47.83929964 94.1684009 -50.26076571 87.93989185 -48.83374023 78.81591797 C-47.02462674 74.74395834 -44.5136791 71.36035324 -41.83374023 67.81591797 C-27.33965014 48.11378194 -15.49818699 26.83283158 -6.86889648 3.89794922 C-5.22715617 0.59588285 -3.63411312 -0.23607489 0 0 Z " fill="#FB7F13" transform="translate(71.833740234375,273.18408203125)"/>
<path d="M0 0 C3.20192188 7.31256609 5.3175147 14.59546986 7.0625 22.375 C7.42698242 23.91607422 7.42698242 23.91607422 7.79882812 25.48828125 C11.61217523 42.17799671 13.50535527 58.46696971 13.39111328 75.58129883 C13.37502571 78.43294203 13.39107872 81.28316464 13.41015625 84.13476562 C13.42267974 93.70158617 12.97855001 103.10760755 11.7265625 112.59765625 C11.61871429 113.47022568 11.51086609 114.3427951 11.39974976 115.24180603 C10.6663893 120.18894747 9.75181483 123.41337635 6 127 C3.625 127.61328125 3.625 127.61328125 1 127 C-1.18732259 125.46352476 -3.04218513 123.97586272 -5 122.1875 C-6.15458316 121.17015881 -7.30954164 120.15324342 -8.46484375 119.13671875 C-9.05120605 118.61384277 -9.63756836 118.0909668 -10.24169922 117.55224609 C-12.44237821 115.60946395 -14.6906561 113.72867729 -16.9453125 111.84912109 C-22.90928553 106.87374142 -28.66436126 101.70727844 -34.34375 96.41015625 C-36.90951434 93.95484333 -36.90951434 93.95484333 -39.78125 92.18359375 C-42.26718569 89.73704789 -42.99823321 88.00729766 -43.22167969 84.52539062 C-42.71070637 78.70434655 -40.55157481 73.22913494 -38.625 67.75 C-38.16129286 66.39984984 -37.69767063 65.04967052 -37.23413086 63.69946289 C-33.4572887 52.82361753 -29.13250127 42.30649406 -24 32 C-23.56010742 31.10925781 -23.12021484 30.21851563 -22.66699219 29.30078125 C-7.91590739 -0.34610818 -7.91590739 -0.34610818 0 0 Z " fill="#FA8E1C" transform="translate(50,110)"/>
<path d="M0 0 C2.1484375 -0.30859375 2.1484375 -0.30859375 5 0 C7.07297119 1.58888193 8.79789797 3.10406852 10.625 4.9375 C11.69578726 5.96316521 12.76874244 6.98657147 13.84375 8.0078125 C14.37742187 8.51860352 14.91109375 9.02939453 15.4609375 9.55566406 C23.06026386 16.68726539 31.64136221 22.87143348 39.89501953 29.21606445 C41.01432861 30.07977661 41.01432861 30.07977661 42.15625 30.9609375 C43.15881836 31.73123291 43.15881836 31.73123291 44.18164062 32.51708984 C48.932666 36.39165054 48.932666 36.39165054 49.21044922 38.90136719 C48.39870568 45.10449953 46.56314812 50.50375175 44.125 56.25 C43.72571289 57.20237549 43.32642578 58.15475098 42.91503906 59.13598633 C35.74410472 75.90364332 27.08566412 95.91433588 14 109 C12.33382885 109.04063832 10.66611905 109.042721 9 109 C6.95972906 103.78919439 5.25399041 98.64751484 4 93.1875 C3.74899536 92.10758789 3.74899536 92.10758789 3.49291992 91.00585938 C0.15761134 76.19639013 -2.1675769 61.04030512 -2.1328125 45.84765625 C-2.13376923 44.90748154 -2.13472595 43.96730682 -2.13571167 42.99864197 C-2.13638798 41.02293836 -2.1345723 39.04723246 -2.13037109 37.0715332 C-2.12502112 34.07432989 -2.1303318 31.07727681 -2.13671875 28.08007812 C-2.13605775 26.14843717 -2.13477615 24.21679632 -2.1328125 22.28515625 C-2.13483673 21.4025563 -2.13686096 20.51995636 -2.13894653 19.61061096 C-2.0817366 4.16347321 -2.0817366 4.16347321 0 0 Z " fill="#FA8818" transform="translate(2,222)"/>
</svg>
